<svg xmlns="http://www.w3.org/2000/svg" viewBox="0 0 1200 630">
  <rect width="1200" height="630" fill="#FAF8F3"/>
  <defs>
    <linearGradient id="glow" x1="0%" y1="0%" x2="100%" y2="100%">
      <stop offset="0%" stop-color="#C9B892" stop-opacity="0.25"/>
      <stop offset="50%" stop-color="#FAF8F3" stop-opacity="0"/>
      <stop offset="100%" stop-color="#8B6F47" stop-opacity="0.2"/>
    </linearGradient>
  </defs>
  <rect width="1200" height="630" fill="url(#glow)"/>
  <g transform="translate(560, 170)">
    <path d="M12 38c6-2 10-6 14-12 2-3 5-6 10-6 6 0 10 4 12 10-4 0-7 2-9 5-4 6-10 10-18 10-4 0-7-1-9-3l-4 4c0-3 2-6 4-8z" fill="#8B6F47" transform="scale(2)"/>
  </g>
  <text x="600" y="360" text-anchor="middle" font-family="Georgia, serif" font-size="64" fill="#0F0D0A">Black Bird Consulting</text>
  <text x="600" y="420" text-anchor="middle" font-family="Georgia, serif" font-size="28" font-style="italic" fill="#6B6159">Life Coaching &amp; Creative Business Strategy</text>
  <text x="600" y="490" text-anchor="middle" font-family="sans-serif" font-size="18" letter-spacing="6" fill="#8B6F47">BLACKBIRDCONSULTINGUSA.COM</text>
</svg>
